<svg xmlns="http://www.w3.org/2000/svg" viewBox="0 0 120 120" class="animate-on-scroll">
  <defs>
    <!-- Gradients -->
    <linearGradient id="carSideGradient" x1="0%" y1="0%" x2="100%" y2="100%">
      <stop offset="0%" stop-color="#e8e8e8" />
      <stop offset="100%" stop-color="#c0c0c0" />
    </linearGradient>
    
    <linearGradient id="dentGradient" x1="0%" y1="0%" x2="100%" y2="100%">
      <stop offset="0%" stop-color="#bbb" />
      <stop offset="100%" stop-color="#999" />
    </linearGradient>
    
    <linearGradient id="brandAccentGradient" x1="0%" y1="0%" x2="100%" y2="100%">
      <stop offset="0%" stop-color="#e53244" />
      <stop offset="100%" stop-color="#c8102e" />
    </linearGradient>
    
    <linearGradient id="toolGradient" x1="0%" y1="0%" x2="100%" y2="100%">
      <stop offset="0%" stop-color="#555" />
      <stop offset="100%" stop-color="#333" />
    </linearGradient>
    
    <!-- Filters -->
    <filter id="dentShadow" x="-20%" y="-20%" width="140%" height="140%">
      <feDropShadow dx="1" dy="1" stdDeviation="1" flood-color="rgba(0,0,0,0.3)" />
    </filter>
    
    <!-- Clip paths -->
    <clipPath id="carSideClip">
      <path d="M20,30 C30,20 40,15 55,15 C70,15 85,20 95,40 L100,70 C100,80 90,85 80,85 L30,85 C25,85 20,80 20,75 Z" />
    </clipPath>
  </defs>
  
  <!-- Background -->
  <rect class="bg" width="120" height="120" fill="#f5f5f5" opacity="0">
    <animate attributeName="opacity" from="0" to="0.5" dur="0.7s" begin="0.2s" fill="freeze" />
  </rect>
  
  <!-- Car Side Panel -->
  <g clip-path="url(#carSideClip)" opacity="0">
    <path class="car-panel" d="M20,30 C30,20 40,15 55,15 C70,15 85,20 95,40 L100,70 C100,80 90,85 80,85 L30,85 C25,85 20,80 20,75 Z" 
          fill="url(#carSideGradient)" stroke="#aaa" stroke-width="1" />
    
    <!-- Initial dent -->
    <path class="dent" d="M60,50 C55,48 52,45 50,40 C48,45 45,48 40,50 C45,52 48,55 50,60 C52,55 55,52 60,50 Z" 
          fill="url(#dentGradient)" filter="url(#dentShadow)">
      <!-- Dent repair animation -->
      <animate attributeName="d" 
               from="M60,50 C55,48 52,45 50,40 C48,45 45,48 40,50 C45,52 48,55 50,60 C52,55 55,52 60,50 Z"
               to="M60,50 C58,49.5 52,49.5 50,49.5 C48,49.5 42,49.5 40,50 C42,50.5 48,50.5 50,50.5 C52,50.5 58,50.5 60,50 Z"
               dur="1.5s" begin="1.5s" fill="freeze" />
    </path>
    
    <!-- Car panel appear animation -->
    <animate attributeName="opacity" from="0" to="1" dur="0.8s" begin="0.5s" fill="freeze" />
  </g>
  
  <!-- PDR Tool that moves to fix the dent -->
  <g class="pdr-tool" transform="translate(80, 20) rotate(45)" opacity="0">
    <!-- Tool handle -->
    <rect x="-5" y="0" width="10" height="35" rx="2" ry="2" fill="url(#toolGradient)" />
    
    <!-- Tool head -->
    <path d="M-5,0 C-5,-5 -3,-8 0,-10 C3,-8 5,-5 5,0 Z" fill="url(#toolGradient)" />
    
    <!-- Tool appear animation -->
    <animate attributeName="opacity" from="0" to="1" dur="0.5s" begin="1s" fill="freeze" />
    
    <!-- Tool movement animation -->
    <animateTransform attributeName="transform" type="translate" 
                      from="80, 20" to="50, 40"
                      dur="1s" begin="1.3s" fill="freeze" />
    <animateTransform attributeName="transform" type="rotate" 
                      from="45" to="15"
                      dur="1s" begin="1.3s" fill="freeze" additive="sum" />
    
    <!-- Tool movement back -->
    <animateTransform attributeName="transform" type="translate" 
                      from="50, 40" to="80, 20"
                      dur="0.8s" begin="2.8s" fill="freeze" />
    <animateTransform attributeName="transform" type="rotate" 
                      from="15" to="45"
                      dur="0.8s" begin="2.8s" fill="freeze" additive="sum" />
  </g>
  
  <!-- Sparkle effect over the repaired area -->
  <g class="sparkle" transform="translate(50, 50)" opacity="0">
    <!-- Sparkle rays -->
    <path d="M0,-10 L0,10 M-10,0 L10,0 M-7,-7 L7,7 M-7,7 L7,-7" 
          stroke="url(#brandAccentGradient)" stroke-width="2" stroke-linecap="round">
      <animateTransform attributeName="transform" type="rotate" 
                        from="0" to="90"
                        dur="1.5s" repeatCount="indefinite" />
    </path>
    
    <!-- Sparkle center -->
    <circle cx="0" cy="0" r="3" fill="url(#brandAccentGradient)">
      <animate attributeName="r" values="2;4;2" dur="1s" repeatCount="indefinite" />
    </circle>
    
    <!-- Sparkle appear animation -->
    <animate attributeName="opacity" from="0" to="1" dur="0.3s" begin="2.5s" fill="freeze" />
  </g>
  
  <!-- "PDR" Label that slides in -->
  <g class="pdr-label" transform="translate(60, 100)" opacity="0">
    <rect x="-25" y="-12" width="50" height="18" rx="5" ry="5" 
          fill="url(#brandAccentGradient)" filter="url(#dentShadow)" />
    <text x="0" y="0" text-anchor="middle" font-family="'Montserrat', sans-serif" 
          font-size="10" font-weight="600" fill="white">PDR</text>
          
    <!-- Label slide in animation -->
    <animateTransform attributeName="transform" type="translate"
                      from="120, 100" to="60, 100"
                      dur="0.7s" begin="3s" fill="freeze" />
    <animate attributeName="opacity" from="0" to="1" dur="0.5s" begin="3s" fill="freeze" />
  </g>
  
  <!-- Check mark appears after repair -->
  <g class="check-mark" transform="translate(95, 85) scale(0)" opacity="0">
    <circle cx="0" cy="0" r="12" fill="white" stroke="url(#brandAccentGradient)" stroke-width="2" />
    <path d="M-5,0 L-2,3 L5,-4" stroke="url(#brandAccentGradient)" stroke-width="2.5" 
          stroke-linecap="round" stroke-linejoin="round" />
          
    <!-- Check mark appear animation -->
    <animateTransform attributeName="transform" type="scale"
                      from="0" to="1"
                      dur="0.5s" begin="3.2s" fill="freeze" additive="sum" />
    <animate attributeName="opacity" from="0" to="1" dur="0.5s" begin="3.2s" fill="freeze" />
  </g>
</svg> 