<svg width="324" height="76" viewBox="0 0 324 76" fill="none" xmlns="http://www.w3.org/2000/svg">
<path d="M304.867 51.5122C301.198 51.5122 297.934 50.7442 295.075 49.2082C292.259 47.6722 290.019 45.5815 288.355 42.9362C286.734 40.2482 285.923 37.1975 285.923 33.7841C285.923 30.3281 286.734 27.2775 288.355 24.6321C290.019 21.9441 292.259 19.8535 295.075 18.3601C297.934 16.8242 301.198 16.0562 304.867 16.0562C308.494 16.0562 311.736 16.8242 314.595 18.3601C317.454 19.8535 319.694 21.9228 321.315 24.5682C322.936 27.2135 323.747 30.2855 323.747 33.7841C323.747 37.1975 322.936 40.2482 321.315 42.9362C319.694 45.5815 317.454 47.6722 314.595 49.2082C311.736 50.7442 308.494 51.5122 304.867 51.5122ZM304.867 43.3202C306.531 43.3202 308.024 42.9362 309.347 42.1682C310.67 41.4002 311.715 40.3122 312.483 38.9042C313.251 37.4535 313.635 35.7468 313.635 33.7841C313.635 31.7788 313.251 30.0722 312.483 28.6642C311.715 27.2562 310.67 26.1682 309.347 25.4002C308.024 24.6322 306.531 24.2482 304.867 24.2482C303.203 24.2482 301.71 24.6322 300.387 25.4002C299.064 26.1682 297.998 27.2562 297.187 28.6642C296.419 30.0722 296.035 31.7788 296.035 33.7841C296.035 35.7468 296.419 37.4535 297.187 38.9042C297.998 40.3122 299.064 41.4002 300.387 42.1682C301.71 42.9362 303.203 43.3202 304.867 43.3202Z" fill="#121212"/>
<path d="M275.813 51.5121C271.76 51.5121 268.602 50.4881 266.341 48.4401C264.08 46.3495 262.949 43.2561 262.949 39.1601V8.95215H272.933V39.0321C272.933 40.4828 273.317 41.6135 274.085 42.4241C274.853 43.1921 275.898 43.5761 277.221 43.5761C278.8 43.5761 280.144 43.1495 281.253 42.2961L283.941 49.3361C282.917 50.0615 281.68 50.6161 280.229 51.0001C278.821 51.3415 277.349 51.5121 275.813 51.5121ZM257.637 25.0161V17.3361H281.509V25.0161H257.637Z" fill="#121212"/>
<path d="M232.324 51.5121C229.465 51.5121 226.905 50.9575 224.644 49.8481C222.425 48.7388 220.697 47.0535 219.46 44.7921C218.222 42.4881 217.604 39.5654 217.604 36.0241V16.5681H227.588V34.5521C227.588 37.4108 228.185 39.5228 229.38 40.8881C230.617 42.2108 232.345 42.8721 234.564 42.8721C236.1 42.8721 237.465 42.5521 238.66 41.9121C239.854 41.2295 240.793 40.2055 241.476 38.8401C242.158 37.4321 242.5 35.6828 242.5 33.5921V16.5681H252.484V51.0001H243.012V41.5281L244.74 44.2801C243.588 46.6695 241.881 48.4828 239.62 49.7201C237.401 50.9148 234.969 51.5121 232.324 51.5121Z" fill="#121212"/>
<path d="M164.237 51.0002L184.205 6.2002H194.445L214.477 51.0002H203.597L187.213 11.4482H191.309L174.861 51.0002H164.237ZM174.221 41.4002L176.973 33.5282H200.013L202.829 41.4002H174.221Z" fill="#121212"/>
<path d="M146.133 51.5122C142.208 51.5122 138.752 50.7442 135.765 49.2082C132.821 47.6722 130.539 45.5815 128.917 42.9362C127.296 40.2482 126.485 37.1975 126.485 33.7841C126.485 30.3281 127.275 27.2775 128.853 24.6321C130.475 21.9441 132.672 19.8535 135.445 18.3601C138.219 16.8242 141.355 16.0562 144.853 16.0562C148.224 16.0562 151.253 16.7815 153.941 18.2322C156.672 19.6402 158.827 21.6882 160.405 24.3762C161.984 27.0215 162.773 30.2002 162.773 33.9122C162.773 34.2962 162.752 34.7442 162.709 35.2562C162.667 35.7255 162.624 36.1735 162.581 36.6002H134.613V30.7762H157.333L153.493 32.5042C153.493 30.7121 153.131 29.1548 152.405 27.8322C151.68 26.5095 150.677 25.4855 149.397 24.7602C148.117 23.9922 146.624 23.6082 144.917 23.6082C143.211 23.6082 141.696 23.9922 140.373 24.7602C139.093 25.4855 138.091 26.5308 137.365 27.8961C136.64 29.2188 136.277 30.7975 136.277 32.6322V34.1682C136.277 36.0455 136.683 37.7095 137.493 39.1602C138.347 40.5682 139.52 41.6562 141.013 42.4242C142.549 43.1495 144.341 43.5122 146.389 43.5122C148.224 43.5122 149.824 43.2348 151.189 42.6802C152.597 42.1255 153.877 41.2935 155.029 40.1842L160.341 45.9442C158.763 47.7362 156.779 49.1228 154.389 50.1042C152 51.0428 149.248 51.5122 146.133 51.5122Z" fill="#121212"/>
<path d="M109.795 51.0001V16.5681H119.779V51.0001H109.795ZM114.787 11.7681C112.953 11.7681 111.459 11.2347 110.307 10.1681C109.155 9.10142 108.579 7.77875 108.579 6.20008C108.579 4.62141 109.155 3.29875 110.307 2.23208C111.459 1.16541 112.953 0.63208 114.787 0.63208C116.622 0.63208 118.115 1.14408 119.267 2.16808C120.419 3.14942 120.995 4.42942 120.995 6.00808C120.995 7.67208 120.419 9.05875 119.267 10.1681C118.158 11.2347 116.665 11.7681 114.787 11.7681Z" fill="#121212"/>
<path d="M67.381 51.0001L82.805 30.7761L82.613 36.2801L67.829 16.5681H79.029L88.373 29.4321L84.149 29.5601L93.813 16.5681H104.437L89.589 36.0881V30.7121L104.949 51.0001H93.621L83.829 37.3041L87.989 37.8801L78.261 51.0001H67.381Z" fill="#121212"/>
<path d="M52.483 51.0001V16.5681H62.467V51.0001H52.483ZM57.475 11.7681C55.6403 11.7681 54.147 11.2347 52.995 10.1681C51.843 9.10142 51.267 7.77875 51.267 6.20008C51.267 4.62141 51.843 3.29875 52.995 2.23208C54.147 1.16541 55.6403 0.63208 57.475 0.63208C59.3096 0.63208 60.803 1.14408 61.955 2.16808C63.107 3.14942 63.683 4.42942 63.683 6.00808C63.683 7.67208 63.107 9.05875 61.955 10.1681C60.8456 11.2347 59.3523 11.7681 57.475 11.7681Z" fill="#121212"/>
<path d="M0.312012 51.0002V6.2002H20.664C25.528 6.2002 29.816 7.13886 33.528 9.0162C37.24 10.8509 40.1413 13.4322 42.232 16.7602C44.3227 20.0882 45.368 24.0349 45.368 28.6002C45.368 33.1229 44.3227 37.0695 42.232 40.4402C40.1413 43.7682 37.24 46.3709 33.528 48.2482C29.816 50.0829 25.528 51.0002 20.664 51.0002H0.312012ZM10.68 42.4882H20.152C23.1387 42.4882 25.72 41.9335 27.896 40.8242C30.1147 39.6722 31.8213 38.0509 33.016 35.9602C34.2533 33.8695 34.872 31.4162 34.872 28.6002C34.872 25.7415 34.2533 23.2882 33.016 21.2402C31.8213 19.1495 30.1147 17.5495 27.896 16.4402C25.72 15.2882 23.1387 14.7122 20.152 14.7122H10.68V42.4882Z" fill="#121212"/>
<path d="M177.035 63.4001C177.888 63.4001 178.682 63.5268 179.415 63.7801C180.162 64.0335 180.802 64.4135 181.335 64.9201C181.868 65.4135 182.288 66.0401 182.595 66.8001C182.902 67.5468 183.055 68.4201 183.055 69.4201C183.055 70.6335 182.875 71.6601 182.515 72.5001C182.155 73.3401 181.668 74.0201 181.055 74.5401C180.442 75.0601 179.728 75.4335 178.915 75.6601C178.102 75.8868 177.242 76.0001 176.335 76.0001H173.135V63.4001H177.035ZM174.575 74.8201H176.155C176.822 74.8201 177.475 74.7468 178.115 74.6001C178.755 74.4401 179.328 74.1601 179.835 73.7601C180.342 73.3468 180.748 72.7935 181.055 72.1001C181.362 71.3935 181.515 70.5001 181.515 69.4201C181.515 68.6468 181.395 67.9601 181.155 67.3601C180.928 66.7601 180.602 66.2535 180.175 65.8401C179.762 65.4268 179.255 65.1135 178.655 64.9001C178.055 64.6868 177.395 64.5801 176.675 64.5801H174.575V74.8201Z" fill="#121212"/>
<path d="M160.186 63.4001H161.486L167.106 71.5401C167.359 71.9135 167.606 72.2868 167.846 72.6601C168.099 73.0335 168.339 73.4068 168.566 73.7801H168.606C168.579 73.2868 168.559 72.8001 168.546 72.3201C168.546 71.8268 168.546 71.3335 168.546 70.8401V63.4001H169.946V76.0001H168.646L163.146 68.1001C162.866 67.7001 162.586 67.2735 162.306 66.8201C162.039 66.3535 161.786 65.8935 161.546 65.4401H161.506C161.533 66.0401 161.553 66.6335 161.566 67.2201C161.579 67.7935 161.586 68.3801 161.586 68.9801V76.0001H160.186V63.4001Z" fill="#121212"/>
<path d="M150.446 71.2401H155.006L154.006 68.5401C153.819 68.0735 153.626 67.5468 153.426 66.9601C153.226 66.3601 153.012 65.7068 152.786 65.0001H152.746C152.639 65.3468 152.532 65.6735 152.426 65.9801C152.319 66.2868 152.212 66.5801 152.106 66.8601C152.012 67.1401 151.912 67.4201 151.806 67.7001C151.712 67.9668 151.606 68.2468 151.486 68.5401L150.446 71.2401ZM152.126 63.4001H153.466L158.346 76.0001H156.826L155.446 72.4001H150.046L148.666 76.0001H147.166L152.126 63.4001Z" fill="#121212"/>
<path d="M139.6 63.4001H141.04V74.8001H146.62V76.0001H139.6V63.4001Z" fill="#121212"/>
<path fill-rule="evenodd" clip-rule="evenodd" d="M134 69.0002H9V71.0002H134V69.0002ZM188 71.0002H312V69.0002H188V71.0002Z" fill="#889988" fill-opacity="0.596078"/>
</svg>
