<svg xmlns="http://www.w3.org/2000/svg" viewBox="0 0 800 400" width="100%" height="100%">
  <!-- Definitions for gradients, patterns and filters -->
  <defs>
    <!-- Map Background Gradient -->
    <linearGradient id="mapBg" x1="0%" y1="0%" x2="100%" y2="100%">
      <stop offset="0%" stop-color="#f9f9f9" />
      <stop offset="100%" stop-color="#f0f0f0" />
    </linearGradient>
    
    <!-- Road Gradients -->
    <linearGradient id="highwayGradient" x1="0%" y1="0%" x2="0%" y2="100%">
      <stop offset="0%" stop-color="#e5e5e5" />
      <stop offset="100%" stop-color="#d0d0d0" />
    </linearGradient>
    
    <linearGradient id="streetGradient" x1="0%" y1="0%" x2="0%" y2="100%">
      <stop offset="0%" stop-color="#e9e9e9" />
      <stop offset="100%" stop-color="#dedede" />
    </linearGradient>
    
    <!-- Marker Gradients -->
    <linearGradient id="markerGradient" x1="0%" y1="0%" x2="100%" y2="100%">
      <stop offset="0%" stop-color="#c8102e" />
      <stop offset="100%" stop-color="#9e0c24" />
    </linearGradient>
    
    <radialGradient id="markerGlow" cx="50%" cy="50%" r="50%" fx="50%" fy="50%">
      <stop offset="0%" stop-color="#c8102e" stop-opacity="0.6"/>
      <stop offset="100%" stop-color="#c8102e" stop-opacity="0"/>
    </radialGradient>
    
    <!-- Business Area Gradient -->
    <linearGradient id="commercialGradient" x1="0%" y1="0%" x2="100%" y2="100%">
      <stop offset="0%" stop-color="#f5f5f5" />
      <stop offset="100%" stop-color="#e8e8e8" />
    </linearGradient>
    
    <!-- Green Space Gradient -->
    <linearGradient id="greenSpaceGradient" x1="0%" y1="0%" x2="100%" y2="100%">
      <stop offset="0%" stop-color="#e6f2db" />
      <stop offset="100%" stop-color="#d6e8c6" />
    </linearGradient>
    
    <!-- Water Area Gradient -->
    <linearGradient id="waterGradient" x1="0%" y1="0%" x2="100%" y2="100%">
      <stop offset="0%" stop-color="#e6f2ff" />
      <stop offset="100%" stop-color="#d6e6f9" />
    </linearGradient>
    
    <!-- Label Background -->
    <linearGradient id="labelGradient" x1="0%" y1="0%" x2="0%" y2="100%">
      <stop offset="0%" stop-color="#ffffff" />
      <stop offset="100%" stop-color="#f6f6f6" />
    </linearGradient>
    
    <!-- Shadow Effects -->
    <filter id="dropShadow" x="-20%" y="-20%" width="140%" height="140%">
      <feDropShadow dx="2" dy="2" stdDeviation="2" flood-color="#00000022" flood-opacity="0.5"/>
    </filter>
    
    <filter id="softShadow" x="-10%" y="-10%" width="120%" height="120%">
      <feDropShadow dx="0" dy="1" stdDeviation="1" flood-color="#00000033" flood-opacity="0.3"/>
    </filter>
    
    <!-- Marker Animation -->
    <filter id="glow" x="-50%" y="-50%" width="200%" height="200%">
      <feGaussianBlur stdDeviation="5" result="blur"/>
      <feComposite in="SourceGraphic" in2="blur" operator="over"/>
    </filter>
    
    <!-- Subtle Grid Pattern -->
    <pattern id="gridPattern" width="20" height="20" patternUnits="userSpaceOnUse">
      <rect width="20" height="20" fill="#ffffff"/>
      <path d="M 20 0 L 0 0 0 20" stroke="#f9f9f9" stroke-width="0.5" fill="none"/>
    </pattern>
  </defs>
  
  <!-- Map Background -->
  <rect width="800" height="400" rx="10" ry="10" fill="url(#mapBg)" filter="url(#softShadow)"/>
  <rect x="10" y="10" width="780" height="380" rx="8" ry="8" fill="url(#gridPattern)" opacity="0.7"/>
  
  <!-- Map Content -->
  <g id="map-content" transform="translate(15, 15)">
    <!-- Major Areas -->
    <g id="areas">
      <!-- Commercial Areas -->
      <path d="M150,50 L600,50 L620,100 L650,170 L670,220 L650,280 L600,300 L550,320 L400,320 L350,340 L200,320 L150,250 L130,150 Z" fill="url(#commercialGradient)" stroke="#d9d9d9" stroke-width="1"/>
      
      <!-- Green Spaces -->
      <path d="M250,100 C270,80 300,90 320,110 C340,95 370,100 380,130 C360,150 330,150 310,130 C290,150 260,140 250,100 Z" fill="url(#greenSpaceGradient)" stroke="#c9e0c9" stroke-width="1"/>
      <path d="M600,150 C620,130 650,140 670,160 C690,140 720,150 730,190 C710,210 680,210 660,190 C640,210 610,200 600,150 Z" fill="url(#greenSpaceGradient)" stroke="#c9e0c9" stroke-width="1"/>
      
      <!-- Water Features -->
      <path d="M50,200 L100,180 L150,190 L140,230 L120,250 L80,240 L50,220 Z" fill="url(#waterGradient)" stroke="#b3d9ff" stroke-width="1"/>
    </g>
    
    <!-- Road Network -->
    <g id="roads">
      <!-- Dixie Highway - Main Road -->
      <path d="M400,10 L400,360" stroke="url(#highwayGradient)" stroke-width="20" stroke-linecap="round" stroke-dasharray="none"/>
      <path d="M400,10 L400,360" stroke="#ffffff" stroke-width="1" stroke-linecap="round" stroke-dasharray="15,15"/>
      
      <!-- Major East-West Roads -->
      <path d="M100,120 L700,120" stroke="url(#highwayGradient)" stroke-width="14" stroke-linecap="round"/>
      <path d="M100,120 L700,120" stroke="#ffffff" stroke-width="1" stroke-linecap="round" stroke-dasharray="10,10"/>
      
      <path d="M150,200 L650,200" stroke="url(#highwayGradient)" stroke-width="14" stroke-linecap="round"/>
      <path d="M150,200 L650,200" stroke="#ffffff" stroke-width="1" stroke-linecap="round" stroke-dasharray="10,10"/>
      
      <path d="M200,280 L600,280" stroke="url(#highwayGradient)" stroke-width="14" stroke-linecap="round"/>
      <path d="M200,280 L600,280" stroke="#ffffff" stroke-width="1" stroke-linecap="round" stroke-dasharray="10,10"/>
      
      <!-- Secondary Roads -->
      <path d="M250,50 L250,320" stroke="url(#streetGradient)" stroke-width="8" stroke-linecap="round"/>
      <path d="M550,50 L550,320" stroke="url(#streetGradient)" stroke-width="8" stroke-linecap="round"/>
      <path d="M300,200 L300,350" stroke="url(#streetGradient)" stroke-width="8" stroke-linecap="round"/>
      <path d="M500,100 L500,280" stroke="url(#streetGradient)" stroke-width="8" stroke-linecap="round"/>
    </g>
    
    <!-- Building Outlines -->
    <g id="buildings">
      <!-- Dixie Auto Land Building -->
      <rect x="380" y="170" width="40" height="30" rx="2" ry="2" fill="#c8102e" opacity="0.8" stroke="#9e0c24" stroke-width="1"/>
      
      <!-- Other Buildings -->
      <rect x="320" y="80" width="30" height="25" rx="2" ry="2" fill="#e0e0e0" stroke="#cccccc" stroke-width="1"/>
      <rect x="450" y="80" width="30" height="20" rx="2" ry="2" fill="#e0e0e0" stroke="#cccccc" stroke-width="1"/>
      <rect x="270" y="220" width="35" height="25" rx="2" ry="2" fill="#e0e0e0" stroke="#cccccc" stroke-width="1"/>
      <rect x="460" y="220" width="25" height="30" rx="2" ry="2" fill="#e0e0e0" stroke="#cccccc" stroke-width="1"/>
      <rect x="350" y="250" width="35" height="20" rx="2" ry="2" fill="#e0e0e0" stroke="#cccccc" stroke-width="1"/>
      <rect x="420" y="250" width="40" height="20" rx="2" ry="2" fill="#e0e0e0" stroke="#cccccc" stroke-width="1"/>
    </g>
    
    <!-- Main Location Marker -->
    <g id="main-marker" transform="translate(400, 185)">
      <!-- Glowing Background -->
      <circle r="20" fill="url(#markerGlow)" opacity="0.6" filter="url(#glow)"/>
      
      <!-- Pin Drop Animation -->
      <g>
        <animateTransform 
          attributeName="transform" 
          type="translate" 
          from="0 -50" 
          to="0 0" 
          begin="0s" 
          dur="1.5s"
          fill="freeze"/>
        
        <!-- Pin Base -->
        <path d="M0,-30 C-12,-30 -20,-22 -20,-10 C-20,5 0,25 0,25 C0,25 20,5 20,-10 C20,-22 12,-30 0,-30 Z" 
              fill="url(#markerGradient)" 
              stroke="#ffffff" 
              stroke-width="2"/>
        
        <!-- Pin Circle -->
        <circle cx="0" cy="-10" r="8" fill="white"/>
      </g>
      
      <!-- Pulsing Animation -->
      <circle cx="0" cy="-10" r="8" fill="none" stroke="#ffffff" stroke-width="2">
        <animate attributeName="r" values="8;12;8" dur="2s" repeatCount="indefinite"/>
        <animate attributeName="opacity" values="1;0.5;1" dur="2s" repeatCount="indefinite"/>
      </circle>
    </g>
    
    <!-- Road Labels -->
    <g id="road-labels">
      <!-- Dixie Highway Label -->
      <g transform="translate(430, 120)">
        <rect x="-65" y="-12" width="130" height="24" rx="12" ry="12" fill="url(#labelGradient)" stroke="#e0e0e0" stroke-width="1" filter="url(#softShadow)"/>
        <text x="0" y="5" font-family="Arial, sans-serif" font-size="12" fill="#333333" text-anchor="middle" font-weight="bold">Dixie Highway</text>
      </g>
      
      <!-- Cross Streets -->
      <g transform="translate(200, 100)">
        <rect x="-50" y="-12" width="100" height="24" rx="12" ry="12" fill="url(#labelGradient)" stroke="#e0e0e0" stroke-width="1" filter="url(#softShadow)"/>
        <text x="0" y="5" font-family="Arial, sans-serif" font-size="11" fill="#555555" text-anchor="middle">Miller Road</text>
      </g>
      
      <g transform="translate(200, 220)">
        <rect x="-50" y="-12" width="100" height="24" rx="12" ry="12" fill="url(#labelGradient)" stroke="#e0e0e0" stroke-width="1" filter="url(#softShadow)"/>
        <text x="0" y="5" font-family="Arial, sans-serif" font-size="11" fill="#555555" text-anchor="middle">Hess Avenue</text>
      </g>
      
      <g transform="translate(600, 100)">
        <rect x="-50" y="-12" width="100" height="24" rx="12" ry="12" fill="url(#labelGradient)" stroke="#e0e0e0" stroke-width="1" filter="url(#softShadow)"/>
        <text x="0" y="5" font-family="Arial, sans-serif" font-size="11" fill="#555555" text-anchor="middle">Oak Road</text>
      </g>
    </g>
    
    <!-- Location Label with Business Information -->
    <g id="location-label" transform="translate(400, 120)">
      <rect x="-120" y="-50" width="240" height="80" rx="8" ry="8" fill="url(#labelGradient)" stroke="#c8102e" stroke-width="2" filter="url(#dropShadow)"/>
      
      <text x="0" y="-25" font-family="Arial, sans-serif" font-size="14" fill="#333333" text-anchor="middle" font-weight="bold">Dixie Auto Land</text>
      <text x="0" y="-5" font-family="Arial, sans-serif" font-size="12" fill="#555555" text-anchor="middle">4285 Dixie Hwy, Saginaw</text>
      <text x="0" y="15" font-family="Arial, sans-serif" font-size="12" fill="#555555" text-anchor="middle">Michigan, MI 48601</text>
      <text x="0" y="35" font-family="Arial, sans-serif" font-size="11" fill="#c8102e" text-anchor="middle">(586) 237-8440</text>
    </g>
  </g>
  
  <!-- Map Controls and Decorations -->
  <g id="map-controls">
    <!-- North Indicator -->
    <g transform="translate(740, 60)">
      <circle cx="0" cy="0" r="25" fill="url(#labelGradient)" stroke="#e0e0e0" stroke-width="1" filter="url(#softShadow)"/>
      <text x="0" y="5" font-family="Arial, sans-serif" font-size="16" font-weight="bold" fill="#555555" text-anchor="middle">N</text>
      <path d="M0 -15 L0 -5" stroke="#555555" stroke-width="2" stroke-linecap="round"/>
      <path d="M0 -15 L-4 -8 L0 -5 L4 -8 Z" fill="#555555"/>
    </g>
    
    <!-- Scale Bar -->
    <g transform="translate(100, 350)">
      <rect x="-60" y="-15" width="120" height="30" rx="5" ry="5" fill="url(#labelGradient)" stroke="#e0e0e0" stroke-width="1" filter="url(#softShadow)"/>
      <line x1="-50" y1="0" x2="50" y2="0" stroke="#555555" stroke-width="2"/>
      <line x1="-50" y1="-5" x2="-50" y2="5" stroke="#555555" stroke-width="2"/>
      <line x1="50" y1="-5" x2="50" y2="5" stroke="#555555" stroke-width="2"/>
      <text x="0" y="-5" font-family="Arial, sans-serif" font-size="10" text-anchor="middle" fill="#555555" font-weight="bold">500 ft</text>
    </g>
    
    <!-- Map Legend -->
    <g transform="translate(700, 350)">
      <rect x="-60" y="-60" width="120" height="80" rx="5" ry="5" fill="url(#labelGradient)" stroke="#e0e0e0" stroke-width="1" filter="url(#softShadow)"/>
      
      <!-- Legend Title -->
      <text x="0" y="-40" font-family="Arial, sans-serif" font-size="10" text-anchor="middle" fill="#333333" font-weight="bold">MAP LEGEND</text>
      
      <!-- Highway -->
      <line x1="-50" y1="-25" x2="-30" y2="-25" stroke="#d0d0d0" stroke-width="6"/>
      <line x1="-50" y1="-25" x2="-30" y2="-25" stroke="#ffffff" stroke-width="1" stroke-dasharray="3,3"/>
      <text x="10" y="-22" font-family="Arial, sans-serif" font-size="9" text-anchor="middle" fill="#555555">Highway</text>
      
      <!-- Street -->
      <line x1="-50" y1="-5" x2="-30" y2="-5" stroke="#dedede" stroke-width="4"/>
      <text x="10" y="-2" font-family="Arial, sans-serif" font-size="9" text-anchor="middle" fill="#555555">Street</text>
      
      <!-- Building -->
      <rect x="-45" y="15" width="10" height="10" fill="#e0e0e0" stroke="#cccccc" stroke-width="1"/>
      <text x="10" y="23" font-family="Arial, sans-serif" font-size="9" text-anchor="middle" fill="#555555">Building</text>
      
      <!-- Our Location -->
      <path d="M-40,45 C-43,45 -45,43 -45,40 C-45,37 -40,33 -40,33 C-40,33 -35,37 -35,40 C-35,43 -37,45 -40,45 Z" fill="#c8102e" stroke="#ffffff" stroke-width="1" transform="scale(0.7)"/>
      <text x="10" y="45" font-family="Arial, sans-serif" font-size="9" text-anchor="middle" fill="#555555">Our Location</text>
    </g>
  </g>
</svg> 