<svg xmlns="http://www.w3.org/2000/svg" viewBox="0 0 300 80" class="animate-on-scroll">
  <defs>
    <!-- Main brand color gradient -->
    <linearGradient id="brandGradient" x1="0%" y1="0%" x2="100%" y2="0%">
      <stop offset="0%" stop-color="#c8102e" />
      <stop offset="50%" stop-color="#e01a3b" />
      <stop offset="100%" stop-color="#c8102e" />
    </linearGradient>
    
    <!-- Text fill gradient -->
    <linearGradient id="textGradient" x1="0%" y1="0%" x2="0%" y2="100%">
      <stop offset="0%" stop-color="#333333" />
      <stop offset="100%" stop-color="#555555" />
    </linearGradient>
    
    <!-- Reveal animation mask -->
    <mask id="revealMask">
      <rect x="0" y="0" width="300" height="80" fill="white">
        <animate attributeName="x" from="-300" to="300" dur="1.5s" begin="0.5s" fill="freeze" />
      </rect>
    </mask>
    
    <!-- Filters -->
    <filter id="dropShadow" x="-20%" y="-20%" width="140%" height="140%">
      <feDropShadow dx="1" dy="1" stdDeviation="1" flood-color="rgba(0,0,0,0.3)" />
    </filter>
  </defs>
  
  <!-- Background Design Elements -->
  <rect x="10" y="10" width="280" height="60" rx="5" ry="5" fill="#f9f9f9" opacity="0.3" />
  
  <!-- Decorative auto parts gears -->
  <g class="gears" opacity="0" transform="translate(25, 25) scale(0.8)">
    <circle cx="0" cy="0" r="12" fill="none" stroke="#c8102e" stroke-width="1" />
    <path d="M0,-15 L0,-9 M15,0 L9,0 M0,15 L0,9 M-15,0 L-9,0 M-11,-11 L-6,-6 M11,-11 L6,-6 M11,11 L6,6 M-11,11 L-6,6" 
          stroke="#c8102e" stroke-width="2" stroke-linecap="round" />
    
    <animateTransform attributeName="transform" type="rotate" from="0" to="360" dur="20s" repeatCount="indefinite" />
  </g>
  
  <!-- Second gear -->
  <g class="gears" opacity="0" transform="translate(260, 50) scale(0.6)">
    <circle cx="0" cy="0" r="12" fill="none" stroke="#c8102e" stroke-width="1" />
    <path d="M0,-15 L0,-9 M15,0 L9,0 M0,15 L0,9 M-15,0 L-9,0 M-11,-11 L-6,-6 M11,-11 L6,-6 M11,11 L6,6 M-11,11 L-6,6" 
          stroke="#c8102e" stroke-width="2" stroke-linecap="round" />
    
    <animateTransform attributeName="transform" type="rotate" from="0" to="-360" dur="15s" repeatCount="indefinite" />
  </g>
  
  <!-- Swoosh path representing motion and roads -->
  <path class="swoosh" d="M30,40 C60,20 120,60 180,40 C240,20 270,40 290,30" 
        stroke="url(#brandGradient)" stroke-width="3" fill="none" 
        stroke-dasharray="320" stroke-dashoffset="320" stroke-linecap="round">
    <animate attributeName="stroke-dashoffset" from="320" to="0" dur="1.5s" fill="freeze" />
  </path>
  
  <!-- Main text -->
  <g class="logo-text" opacity="0">
    <text x="150" y="45" text-anchor="middle" font-family="'Montserrat', sans-serif" font-weight="600" font-size="24" letter-spacing="1" fill="url(#textGradient)" filter="url(#dropShadow)">DIXIE AUTO LAND</text>
    
    <animate attributeName="opacity" from="0" to="1" dur="1s" begin="1s" fill="freeze" />
  </g>
  
  <!-- Car silhouette that drives in -->
  <g class="car" transform="translate(-50, 55) scale(0.4)">
    <!-- Car body -->
    <path d="M0,0 L20,0 C25,-10 60,-10 70,0 L90,0 L100,10 L100,20 L90,20 L85,30 L15,30 L10,20 L0,20 Z" 
          fill="#333" filter="url(#dropShadow)" />
    <!-- Windows -->
    <path d="M30,0 C35,-8 55,-8 65,0 L60,15 L35,15 Z" fill="#99ccff" />
    <!-- Wheels -->
    <circle cx="25" cy="25" r="8" fill="#222" />
    <circle cx="25" cy="25" r="3" fill="#999" />
    <circle cx="75" cy="25" r="8" fill="#222" />
    <circle cx="75" cy="25" r="3" fill="#999" />
    
    <animateTransform attributeName="transform" type="translate" 
                      from="-50,55" to="350,55" 
                      dur="2s" fill="freeze" />
  </g>
  
  <!-- Reveal animations for gears -->
  <animate xlink:href=".gears" attributeName="opacity" from="0" to="0.7" dur="1s" begin="1.8s" fill="freeze" />
</svg> 