<svg xmlns="http://www.w3.org/2000/svg" width="800" height="400" viewBox="0 0 800 400">
  <!-- Definitions -->
  <defs>
    <!-- Map Background Gradient -->
    <linearGradient id="mapBg" x1="0%" y1="0%" x2="100%" y2="100%">
      <stop offset="0%" stop-color="#f4f4f4" />
      <stop offset="100%" stop-color="#e6e6e6" />
    </linearGradient>
    
    <!-- Road Gradient -->
    <linearGradient id="roadGradient" x1="0%" y1="0%" x2="0%" y2="100%">
      <stop offset="0%" stop-color="#d9d9d9" />
      <stop offset="100%" stop-color="#bfbfbf" />
    </linearGradient>
    
    <!-- Pin Shadow -->
    <filter id="shadow" x="-20%" y="-20%" width="140%" height="140%">
      <feDropShadow dx="2" dy="2" stdDeviation="2" flood-color="#00000033" />
    </filter>
    
    <!-- Pin Gradient -->
    <linearGradient id="pinGradient" x1="0%" y1="0%" x2="100%" y2="100%">
      <stop offset="0%" stop-color="#c8102e" />
      <stop offset="100%" stop-color="#8c0a20" />
    </linearGradient>
    
    <!-- Label Gradient -->
    <linearGradient id="labelGradient" x1="0%" y1="0%" x2="0%" y2="100%">
      <stop offset="0%" stop-color="#ffffff" />
      <stop offset="100%" stop-color="#f6f6f6" />
    </linearGradient>
  </defs>
  
  <!-- Background -->
  <rect width="800" height="400" rx="8" ry="8" fill="url(#mapBg)"/>
  
  <!-- Map Area with subtle pattern -->
  <rect x="50" y="50" width="700" height="300" rx="5" ry="5" fill="#ffffff" stroke="#e0e0e0" stroke-width="1"/>
  <pattern id="gridPattern" width="20" height="20" patternUnits="userSpaceOnUse">
    <rect width="20" height="20" fill="#ffffff"/>
    <path d="M 20 0 L 0 0 0 20" stroke="#f9f9f9" stroke-width="1" fill="none"/>
  </pattern>
  <rect x="50" y="50" width="700" height="300" fill="url(#gridPattern)" opacity="0.5"/>
  
  <!-- Simplified road map with better style -->
  <line x1="200" y1="50" x2="200" y2="350" stroke="url(#roadGradient)" stroke-width="8" stroke-linecap="round"/>
  <line x1="50" y1="200" x2="750" y2="200" stroke="url(#roadGradient)" stroke-width="10" stroke-linecap="round"/>
  
  <!-- Dixie Highway label with improved style -->
  <g transform="translate(215, 185)">
    <rect x="-5" y="-12" width="90" height="16" rx="8" ry="8" fill="#ffffff" stroke="#e0e0e0" stroke-width="0.5" opacity="0.9"/>
    <text font-family="Arial, sans-serif" font-size="11" fill="#666666" font-weight="500">Dixie Highway</text>
  </g>
  
  <!-- Location pin with animation and enhanced style -->
  <g transform="translate(400, 200)" filter="url(#shadow)">
    <!-- Pin Body -->
    <path d="M0-48c-9.8 0-18 8.2-18 18 0 7.9 5.3 14.6 12.5 16.7v23.7l5.5 5.5 5.5-5.5v-23.7c7.2-2.1 12.5-8.8 12.5-16.7 0-9.8-8.2-18-18-18z" fill="url(#pinGradient)"/>
    
    <!-- Pin Circle -->
    <circle cx="0" cy="-30" r="8" fill="white"/>
    
    <!-- Pulsing Animation -->
    <circle cx="0" cy="-30" r="12" fill="none" stroke="#c8102e" stroke-width="1" opacity="0.6">
      <animate attributeName="r" values="8;14;8" dur="2s" repeatCount="indefinite"/>
      <animate attributeName="opacity" values="0.6;0;0.6" dur="2s" repeatCount="indefinite"/>
    </circle>
  </g>
  
  <!-- Location label with enhanced styling -->
  <g transform="translate(320, 120)">
    <rect width="160" height="40" rx="8" ry="8" fill="url(#labelGradient)" stroke="#c8102e" stroke-width="2" filter="url(#shadow)"/>
    <text x="80" y="25" font-family="Arial, sans-serif" font-size="14" font-weight="bold" fill="#333333" text-anchor="middle">Dixie Auto Land</text>
  </g>
  
  <!-- Legend with improved styling -->
  <g transform="translate(50, 320)">
    <rect width="200" height="60" rx="8" ry="8" fill="url(#labelGradient)" stroke="#e0e0e0" stroke-width="1" filter="url(#shadow)"/>
    <text x="100" y="25" font-family="Arial, sans-serif" font-size="12" fill="#555555" text-anchor="middle" font-weight="500">4285 Dixie Hwy, Saginaw</text>
    <text x="100" y="45" font-family="Arial, sans-serif" font-size="12" fill="#555555" text-anchor="middle" font-weight="500">Michigan, MI 48601</text>
  </g>
  
  <!-- Compass with enhanced styling -->
  <g transform="translate(700, 320)">
    <circle cx="0" cy="0" r="25" fill="url(#labelGradient)" stroke="#e0e0e0" stroke-width="1" filter="url(#shadow)"/>
    <text x="0" y="5" font-family="Arial, sans-serif" font-size="16" font-weight="bold" fill="#555555" text-anchor="middle">N</text>
    <path d="M0 -15 L0 -5" stroke="#555555" stroke-width="2" stroke-linecap="round"/>
    <path d="M0 -15 L-4 -8 L0 -5 L4 -8 Z" fill="#555555"/>
  </g>
  
  <!-- Decorative Elements -->
  <!-- Curved road path -->
  <path d="M600,150 C650,180 680,200 690,280" stroke="url(#roadGradient)" stroke-width="5" fill="none" stroke-linecap="round"/>
  
  <!-- Additional Road Markers -->
  <circle cx="200" cy="200" r="5" fill="#ffffff" stroke="#bfbfbf" stroke-width="2"/>
  
  <!-- Small Parks/Green Areas -->
  <path d="M300,100 C320,80 350,90 360,115 C380,105 400,120 390,150 C370,160 340,150 330,130 C320,140 290,130 300,100Z" fill="#e6f0e6" stroke="#c9e0c9" stroke-width="1"/>
  <path d="M500,250 C520,230 550,240 560,265 C580,255 600,270 590,300 C570,310 540,300 530,280 C520,290 490,280 500,250Z" fill="#e6f0e6" stroke="#c9e0c9" stroke-width="1"/>
</svg> 