<svg xmlns="http://www.w3.org/2000/svg" width="800" height="400" viewBox="0 0 800 400">
  <rect width="800" height="400" fill="#eaeaea"/>
  <rect x="50" y="50" width="700" height="300" fill="#ffffff" stroke="#dddddd" stroke-width="1"/>
  
  <!-- Simplified road map -->
  <line x1="200" y1="50" x2="200" y2="350" stroke="#c8c8c8" stroke-width="6"/>
  <line x1="50" y1="200" x2="750" y2="200" stroke="#c8c8c8" stroke-width="8"/>
  
  <!-- Dixie Highway label -->
  <text x="220" y="190" font-family="Arial" font-size="12" fill="#999999">Dixie Highway</text>
  
  <!-- Location pin -->
  <g transform="translate(400, 200)">
    <path d="M0-48c-9.8 0-18 8.2-18 18 0 7.9 5.3 14.6 12.5 16.7v23.7l5.5 5.5 5.5-5.5v-23.7c7.2-2.1 12.5-8.8 12.5-16.7 0-9.8-8.2-18-18-18z" fill="#c8102e"/>
    <circle cx="0" cy="-30" r="8" fill="white"/>
  </g>
  
  <!-- Location label -->
  <rect x="320" y="120" width="160" height="40" rx="5" fill="white" stroke="#c8102e" stroke-width="2"/>
  <text x="400" y="145" font-family="Arial" font-size="14" font-weight="bold" fill="#333333" text-anchor="middle">Dixie Auto Land</text>
  
  <!-- Legend -->
  <rect x="50" y="320" width="200" height="60" rx="5" fill="white" stroke="#dddddd" stroke-width="1"/>
  <text x="150" y="345" font-family="Arial" font-size="12" fill="#666666" text-anchor="middle">4285 Dixie Hwy, Saginaw</text>
  <text x="150" y="365" font-family="Arial" font-size="12" fill="#666666" text-anchor="middle">Michigan, MI 48601</text>
  
  <!-- Compass -->
  <circle cx="700" cy="320" r="25" fill="white" stroke="#dddddd" stroke-width="1"/>
  <text x="700" y="325" font-family="Arial" font-size="16" font-weight="bold" fill="#666666" text-anchor="middle">N</text>
  <path d="M700 310 L700 290" stroke="#666666" stroke-width="2"/>
  <path d="M700 310 L695 305 L700 290 L705 305 Z" fill="#666666"/>
</svg> 